<?xml version="1.0" encoding="iso-8859-1"?>
<!-- Generator: Adobe Illustrator 16.0.0, SVG Export Plug-In . SVG Version: 6.00 Build 0)  -->
<!DOCTYPE svg PUBLIC "-//W3C//DTD SVG 1.1//EN" "http://www.w3.org/Graphics/SVG/1.1/DTD/svg11.dtd">
<svg version="1.1" id="Capa_1" xmlns="http://www.w3.org/2000/svg" xmlns:xlink="http://www.w3.org/1999/xlink" x="0px" y="0px"
	 width="31.413px" height="31.413px" viewBox="0 0 31.413 31.413" style="enable-background:new 0 0 31.413 31.413;"
	 xml:space="preserve">
<g>
	<path d="M15.87,14.241c-0.3-1.608-0.665-3.534-1.009-5.341c0.599-3.163,1.132-5.945,1.132-5.945l0.385-0.613L15.87,14.241z
		 M13.406,16.725l1.023,0.942l-0.406,9.724c0,0-0.007-0.01-0.014-0.02c0,0.006,0,0.013,0.001,0.02
		c-0.016,2.031-1.506,3.674-3.32,3.66c-1.814-0.016-3.278-1.681-3.263-3.713c0.012-1.419,0.743-2.646,1.8-3.253
		c0.092-0.065,3.276-2.45,3.989-6.202C13.222,17.791,13.292,17.369,13.406,16.725z M12.944,27.38
		c0.011-1.442-0.979-2.626-2.205-2.636c-1.228-0.009-2.235,1.157-2.246,2.601c-0.011,1.446,0.979,2.63,2.205,2.64
		C11.926,29.992,12.932,28.825,12.944,27.38z M21.779,27.753c-0.018,2.032-1.506,3.674-3.32,3.66
		c-1.814-0.016-3.277-1.68-3.261-3.711c0-0.063,0.006-0.129,0.009-0.193l-0.289-10.003l-1.417-1.308L12.957,2.653l0.383,0.573
		c0,0,2.779,14.395,2.799,14.98c0.639,3.674,3.604,6.054,3.824,6.229C21.047,25.045,21.789,26.305,21.779,27.753z M15.215,15.703
		c0.002-0.309-0.248-0.563-0.558-0.566c-0.311-0.002-0.564,0.247-0.566,0.557c-0.003,0.311,0.247,0.564,0.558,0.566
		C14.958,16.264,15.213,16.011,15.215,15.703z M20.712,27.744c0.011-1.445-0.978-2.626-2.204-2.638
		c-1.227-0.008-2.232,1.16-2.245,2.603c-0.011,1.444,0.979,2.627,2.204,2.639C19.693,30.354,20.701,29.188,20.712,27.744z
		 M24.226,14.515c-4.55,0.104-4.394,4.603-3.975,6.014c0.419,1.412,2.44-0.418,3.661-0.627c1.222-0.209,3.295,1.621,4.289,0.627
		C29.195,19.535,28.777,14.41,24.226,14.515z M22.957,13.8c0.884-0.078,1.504-1.225,1.387-2.563
		c-0.118-1.338-0.93-2.359-1.812-2.282c-0.883,0.078-1.502,1.226-1.386,2.563C21.264,12.856,22.074,13.877,22.957,13.8z
		 M25.941,13.703c0.848,0.256,1.852-0.579,2.238-1.864s0.016-2.536-0.834-2.792s-1.852,0.579-2.238,1.865
		C24.72,12.196,25.093,13.446,25.941,13.703z M30.445,12.003c-0.707-0.365-1.728,0.208-2.278,1.279
		c-0.554,1.071-0.429,2.235,0.278,2.6c0.707,0.364,1.729-0.208,2.28-1.28C31.277,13.532,31.152,12.368,30.445,12.003z
		 M20.535,15.641c0.701-0.375,0.809-1.541,0.24-2.603c-0.57-1.062-1.599-1.62-2.3-1.244c-0.7,0.375-0.808,1.54-0.237,2.603
		C18.807,15.458,19.836,16.016,20.535,15.641z M6.54,17.016L6.6,30.618l-0.094,0.091c-0.028,0.027-0.733,0.699-1.676,0.704
		c-0.935,0.003-1.691-0.655-1.724-0.683l-0.104-0.09L2.943,17.028l0.791-0.002l-0.001-0.332L3.4,16.696c0,0-0.002-0.454-0.006-1.2
		L0.408,15.51l-0.001-0.408l2.985-0.013c0-0.124-0.001-0.249-0.001-0.384l-2.985,0.014l-0.002-0.407l2.985-0.014
		c-0.001-0.123-0.002-0.254-0.002-0.383l-2.985,0.013L0.4,13.521l2.984-0.014c-0.002-0.097-0.001-0.194-0.002-0.294l-2.985,0.014
		l-0.003-0.407l2.987-0.015c-0.001-0.127-0.001-0.252-0.002-0.382l-2.985,0.014l-0.002-0.409l2.986-0.014
		c0-0.126-0.001-0.253-0.001-0.383l-2.986,0.014L0.39,11.236l2.986-0.013c0-0.127-0.001-0.254-0.001-0.384l-2.987,0.015l-0.002-0.41
		l2.987-0.013c0-0.146-0.001-0.296-0.001-0.446L0.385,10L0.383,9.59l2.986-0.013C3.368,9.451,3.368,9.323,3.367,9.194L0.381,9.208
		L0.379,8.8l2.987-0.013C3.365,8.659,3.365,8.533,3.364,8.404L0.377,8.417L0.376,8.008l2.985-0.014c0.001-0.127,0-0.254,0-0.381
		L0.374,7.627l-0.002-0.41l2.986-0.012c0-0.132-0.001-0.263-0.001-0.395L0.37,6.824L0.369,6.415l2.986-0.013
		C3.354,6.272,3.354,6.146,3.353,6.019L0.367,6.032L0.365,5.625L3.35,5.611c0-0.129-0.001-0.258-0.001-0.384L0.364,5.241
		L0.362,4.832l2.984-0.013c0-0.128-0.001-0.257-0.001-0.383L0.359,4.449L0.358,4.041l2.986-0.012c0-0.153,0-0.301-0.001-0.446
		L0.356,3.594L0.355,3.188l2.984-0.014c0-0.133,0-0.258,0-0.383L0.352,2.806l-0.001-0.41l2.986-0.014c0-0.131,0-0.259-0.001-0.381
		L0.349,2.014L0.347,1.604L3.334,1.59C3.333,1.452,3.332,1.325,3.332,1.208L0.345,1.22L0.344,0.813L3.33,0.799
		c0-0.213-0.001-0.361-0.001-0.408c-0.003-0.612,2.729-0.42,2.73-0.012c0,0.033,0,0.183,0.001,0.409l2.959-0.014l0.003,0.409
		l-2.96,0.012c0.002,0.118,0.003,0.246,0.003,0.383l2.958-0.013l0.002,0.409L6.066,1.988c0.001,0.121,0.001,0.249,0.003,0.383
		l2.957-0.015l0.003,0.409L6.07,2.778c0.001,0.126,0.001,0.251,0.002,0.382l2.959-0.012v0.409L6.073,3.57
		c0.001,0.145,0.001,0.295,0.001,0.446l2.96-0.013l0.002,0.408L6.078,4.424c0,0.126,0.001,0.255,0.001,0.382l2.958-0.013
		l0.001,0.409L6.08,5.215C6.081,5.342,6.081,5.469,6.082,5.6l2.959-0.014l0.001,0.408L6.084,6.007
		C6.085,6.134,6.085,6.26,6.085,6.391l2.959-0.013l0.003,0.406L6.088,6.797c0,0.131,0,0.263,0,0.394l2.96-0.014l0.002,0.41
		L6.092,7.601c0.001,0.128,0.001,0.254,0.001,0.383L9.051,7.97l0.002,0.408L6.095,8.392c0.001,0.128,0,0.255,0.001,0.382
		l2.959-0.011L9.057,9.17L6.098,9.183C6.099,9.311,6.1,9.438,6.1,9.566l2.958-0.013L9.06,9.961L6.102,9.976
		c0.001,0.148,0.001,0.297,0.002,0.444l2.961-0.012l0.002,0.409l-2.959,0.012c0,0.129,0.001,0.256,0.001,0.383l2.958-0.013
		l0.002,0.408L6.11,11.62c0.001,0.131,0.001,0.256,0.002,0.384l2.958-0.013l0.002,0.407l-2.96,0.013
		c0.001,0.129,0.002,0.258,0.002,0.383l2.958-0.014l0.002,0.408l-2.959,0.015c0.001,0.098,0.001,0.196,0.002,0.292l2.958-0.014
		l0.004,0.409L6.12,13.902c0,0.131,0.001,0.259,0.001,0.383l2.959-0.013l0.002,0.407l-2.959,0.014c0,0.136,0.001,0.261,0.001,0.384
		l2.959-0.013l0.001,0.408l-2.958,0.014c0.003,0.744,0.005,1.199,0.005,1.199H5.722l0.001,0.332L6.54,17.016z M5.987,30.348
		L5.93,17.629l-2.372,0.012l0.056,12.711C3.818,30.5,4.299,30.801,4.828,30.8C5.35,30.797,5.799,30.493,5.987,30.348z"/>
</g>
<g>
</g>
<g>
</g>
<g>
</g>
<g>
</g>
<g>
</g>
<g>
</g>
<g>
</g>
<g>
</g>
<g>
</g>
<g>
</g>
<g>
</g>
<g>
</g>
<g>
</g>
<g>
</g>
<g>
</g>
</svg>
